<?xml version="1.0" encoding="UTF-8"?>
<svg width="110px" height="88px" viewBox="0 0 110 88" version="1.1" xmlns="http://www.w3.org/2000/svg" xmlns:xlink="http://www.w3.org/1999/xlink">
    <title>Group 5</title>
    <defs>
        <polygon id="path-1" points="0 0 107 0 107 9 0 9"></polygon>
    </defs>
    <g id="Page-1" stroke="none" stroke-width="1" fill="none" fill-rule="evenodd">
        <g id="00a_index" transform="translate(-80.000000, -50.000000)">
            <g id="Group-5" transform="translate(80.000000, 50.000000)">
                <path d="M76.4639577,0 L76.4639577,29.236222 L110,33.4114167 L110,0 L76.4639577,0 Z M38.2324736,0 L38.2324736,66.8238194 L71.7675264,71 L71.7675264,0 L38.2324736,0 Z M61.1436565,37.5885833 L67.4322829,37.5885833 L57.7663029,52.6597053 L57.7663029,62.6466529 L52.2336971,62.6466529 L52.2336971,52.7671661 L42.5677171,37.5885833 L49.0354531,37.5885833 L55.0361188,47.6484858 L61.1436565,37.5885833 Z M0,0 L0,66.8238194 L33.5360423,71 L33.5360423,0 L0,0 Z M22.4807262,37.5885833 L27.9430736,37.5885833 L27.9430736,62.6466529 L23.2367467,62.6466529 L11.0543266,46.7178166 L11.0543266,62.6466529 L5.59296876,62.6466529 L5.59296876,37.5885833 L10.6961074,37.5885833 L22.4807262,53.0175792 L22.4807262,37.5885833 Z M98.6220887,37.5885833 L93.3042164,45.7141925 L88.0209786,37.5885833 L81.5532426,37.5885833 L89.9605077,49.9031895 L81.1950234,62.6466529 L87.4826603,62.6466529 L93.1587517,54.0557091 L98.8011983,62.6466529 L105.268934,62.6466529 L96.5014708,49.8322063 L104.909726,37.5885833 L98.6220887,37.5885833 Z" id="Fill-1" fill="#FEFEFE"></path>
                <g id="Group-4" transform="translate(2.000000, 79.000000)">
                    <mask id="mask-2" fill="white">
                        <use xlink:href="#path-1"></use>
                    </mask>
                    <g id="Clip-3"></g>
                    <path d="M0,8.87516071 L4.56809745,8.87516071 L4.56809745,7.62676785 L1.39918364,7.62676785 L1.39918364,1.73758976 L0,1.73758976 L0,8.87516071 Z M4.60070554,8.87516071 L5.95641172,8.87516071 L6.40403192,7.47060115 L9.16880298,7.47060115 L9.62828066,8.87516071 L11.0600724,8.87516071 L8.64410912,1.73758976 L7.0156807,1.73758976 L4.60070554,8.87516071 Z M6.78643592,6.28429866 L7.55124393,3.90134529 C7.62436511,3.69343661 7.69748629,3.37075481 7.76961934,2.93424065 L7.81408492,2.93424065 C7.88621798,3.34347267 7.95933916,3.66615447 8.03246034,3.90134529 L8.78639898,6.28429866 L6.78643592,6.28429866 Z M13.3436271,8.87516071 L14.5787821,8.87516071 L14.5787821,4.90043589 L14.5570434,4.30775503 L14.6005208,4.27576907 C14.7675138,4.63043683 14.8811481,4.85245696 14.9394474,4.94182947 L17.2556101,8.87516071 L18.5016346,8.87516071 L18.5016346,1.73758976 L17.2556101,1.73758976 L17.2556101,5.71231459 L17.2674676,6.30499545 L17.2338714,6.33604064 C17.0807122,6.00301044 16.968066,5.78193107 16.8949449,5.67092101 L14.5787821,1.73758976 L13.3436271,1.73758976 L13.3436271,8.87516071 Z M22.4254751,9.00028223 C23.4155754,9.00028223 24.1823597,8.69265264 24.7258279,8.07927499 C25.268308,7.46495657 25.5400421,6.54112703 25.5400421,5.30590486 C25.5400421,4.07162344 25.268308,3.14685315 24.7258279,2.53347549 C24.1823597,1.91915708 23.4155754,1.61246825 22.4254751,1.61246825 C21.4343867,1.61246825 20.6676025,1.91915708 20.1251224,2.53347549 C19.5816541,3.14685315 19.3109082,4.07162344 19.3109082,5.30590486 C19.3109082,6.54112703 19.5816541,7.46495657 20.1251224,8.07927499 C20.6676025,8.69265264 21.4343867,9.00028223 22.4254751,9.00028223 L22.4254751,9.00028223 Z M22.4254751,7.85537333 C21.8790425,7.85537333 21.4630423,7.65593151 21.1794507,7.25704788 C20.894871,6.85816426 20.7535693,6.29464706 20.7535693,5.56649628 L20.7535693,5.04625419 C20.7535693,4.31810342 20.894871,3.75458622 21.1794507,3.35570259 C21.4630423,2.95681897 21.8790425,2.75737715 22.4254751,2.75737715 C22.9719077,2.75737715 23.3869198,2.95681897 23.6714995,3.35570259 C23.9550911,3.75458622 24.097381,4.31810342 24.097381,5.04625419 L24.097381,5.56649628 C24.097381,6.29464706 23.9550911,6.85816426 23.6714995,7.25704788 C23.3869198,7.65593151 22.9719077,7.85537333 22.4254751,7.85537333 L22.4254751,7.85537333 Z M27.976756,8.87516071 L29.386809,8.87516071 L31.6703637,1.73758976 L30.3047762,1.73758976 L28.7524334,6.84593433 L28.7089559,6.84593433 L27.1348743,1.73758976 L25.6922132,1.73758976 L27.976756,8.87516071 Z M31.9984208,8.87516071 L33.3976045,8.87516071 L33.3976045,1.73758976 L31.9984208,1.73758976 L31.9984208,8.87516071 Z M35.7691022,8.87516071 L37.1672977,8.87516071 L37.1672977,2.92389225 L39.0249709,2.92389225 L39.0249709,1.73758976 L33.9104409,1.73758976 L33.9104409,2.92389225 L35.7691022,2.92389225 L35.7691022,8.87516071 Z M38.3253791,8.87516071 L39.6810853,8.87516071 L40.1287055,7.47060115 L42.8944647,7.47060115 L43.3529542,8.87516071 L44.784746,8.87516071 L42.3697708,1.73758976 L40.7413424,1.73758976 L38.3253791,8.87516071 Z M40.5111095,6.28429866 L41.2769056,3.90134529 C41.3490387,3.69343661 41.4221598,3.37075481 41.495281,2.93424065 L41.5387585,2.93424065 C41.6118797,3.34347267 41.6850008,3.66615447 41.7571339,3.90134529 L42.5110725,6.28429866 L40.5111095,6.28429866 Z M41.23244,1.06118097 L42.3144358,1.06118097 L41.3747299,0 L40.0634893,0 L40.0526199,0.031045188 L41.23244,1.06118097 Z M47.0683006,8.87516071 L48.3034557,8.87516071 L48.3034557,4.90043589 L48.2817169,4.30775503 L48.3251944,4.27576907 C48.4931755,4.63043683 48.6058216,4.85245696 48.6641209,4.94182947 L50.9812718,8.87516071 L52.2272962,8.87516071 L52.2272962,1.73758976 L50.9812718,1.73758976 L50.9812718,5.71231459 L50.9921412,6.30499545 L50.9595331,6.33604064 C50.8063739,6.00301044 50.6927396,5.78193107 50.6206065,5.67092101 L48.3034557,1.73758976 L47.0683006,1.73758976 L47.0683006,8.87516071 Z M53.3201614,8.87516071 L58.1609811,8.87516071 L58.1609811,7.68885823 L54.7183569,7.68885823 L54.7183569,5.81579855 L57.6145485,5.81579855 L57.6145485,4.63043683 L54.7183569,4.63043683 L54.7183569,2.92389225 L58.0957649,2.92389225 L58.0957649,1.73758976 L53.3201614,1.73758976 L53.3201614,8.87516071 Z M59.0789483,8.87516071 L63.6470458,8.87516071 L63.6470458,7.62676785 L60.478132,7.62676785 L60.478132,1.73758976 L59.0789483,1.73758976 L59.0789483,8.87516071 Z M64.3357682,8.87516071 L68.9038657,8.87516071 L68.9038657,7.62676785 L65.7339638,7.62676785 L65.7339638,1.73758976 L64.3357682,1.73758976 L64.3357682,8.87516071 Z M68.9364738,8.87516071 L70.2911918,8.87516071 L70.7398002,7.47060115 L73.5045712,7.47060115 L73.9640489,8.87516071 L75.3948525,8.87516071 L72.9798774,1.73758976 L71.3514489,1.73758976 L68.9364738,8.87516071 Z M71.1222042,6.28429866 L71.8870122,3.90134529 C71.9601334,3.69343661 72.0332545,3.37075481 72.1053876,2.93424065 L72.1498532,2.93424065 C72.2219862,3.34347267 72.2951074,3.66615447 72.3682286,3.90134529 L73.1221672,6.28429866 L71.1222042,6.28429866 Z M79.0667215,8.87516071 L80.4659051,8.87516071 L80.4659051,2.92389225 L82.3235783,2.92389225 L82.3235783,1.73758976 L77.2090483,1.73758976 L77.2090483,2.92389225 L79.0667215,2.92389225 L79.0667215,8.87516071 Z M82.9352271,8.87516071 L87.7770349,8.87516071 L87.7770349,7.68885823 L84.3344107,7.68885823 L84.3344107,5.81579855 L87.2306023,5.81579855 L87.2306023,4.63043683 L84.3344107,4.63043683 L84.3344107,2.92389225 L87.7118187,2.92389225 L87.7118187,1.73758976 L82.9352271,1.73758976 L82.9352271,8.87516071 Z M88.6950021,8.87516071 L89.9301572,8.87516071 L89.9301572,4.90043589 L89.9084184,4.30775503 L89.9518959,4.27576907 C90.1188889,4.63043683 90.2325231,4.85245696 90.2908225,4.94182947 L92.6069852,8.87516071 L93.8530096,8.87516071 L93.8530096,1.73758976 L92.6069852,1.73758976 L92.6069852,5.71231459 L92.6188427,6.30499545 L92.5852465,6.33604064 C92.4330754,6.00301044 92.3194411,5.78193107 92.2473081,5.67092101 L89.9301572,1.73758976 L88.6950021,1.73758976 L88.6950021,8.87516071 Z M94.9458748,8.87516071 L97.3835768,8.87516071 C98.3371165,8.87516071 99.0772214,8.56282731 99.6019153,7.93910126 C100.126609,7.31443444 100.388462,6.40283483 100.388462,5.2024209 C100.388462,4.07162344 100.124633,3.21176581 99.5959866,2.62190724 C99.0683283,2.03204867 98.3301997,1.73758976 97.3835768,1.73758976 L94.9458748,1.73758976 L94.9458748,8.87516071 Z M96.3450585,7.68885823 L96.3450585,2.92389225 L97.2521563,2.92389225 C97.7837671,2.92389225 98.1987792,3.09511117 98.4981807,3.43848976 C98.7965942,3.78186836 98.9458009,4.28329518 98.9458009,4.94182947 L98.9458009,5.46207156 C98.9458009,6.1911631 98.7965942,6.7443319 98.4981807,7.12157797 C98.1987792,7.49976481 97.7837671,7.68885823 97.2521563,7.68885823 L96.3450585,7.68885823 Z M100.541621,8.87516071 L101.896339,8.87516071 L102.344948,7.47060115 L105.109719,7.47060115 L105.568208,8.87516071 L107,8.87516071 L104.585025,1.73758976 L102.956596,1.73758976 L100.541621,8.87516071 Z M102.727352,6.28429866 L103.49216,3.90134529 C103.565281,3.69343661 103.637414,3.37075481 103.710535,2.93424065 L103.754013,2.93424065 C103.827134,3.34347267 103.900255,3.66615447 103.973376,3.90134529 L104.727315,6.28429866 L102.727352,6.28429866 Z" id="Fill-2" fill="#FEFEFE" mask="url(#mask-2)"></path>
                </g>
            </g>
        </g>
    </g>
</svg>